<?xml version="1.0" encoding="UTF-8"?>
<svg id="Layer_1" data-name="Layer 1" xmlns="http://www.w3.org/2000/svg" viewBox="0 0 1728 1296">
  <defs>
    <style>
      .cls-1 {
        fill: #4b68b1;
      }

      .cls-1, .cls-2, .cls-3, .cls-4 {
        stroke-width: 0px;
      }

      .cls-2 {
        fill: #222160;
      }

      .cls-3 {
        fill: #e2dc21;
      }

      .cls-4 {
        fill: #fff;
      }
    </style>
  </defs>
  <rect class="cls-3" width="1728" height="1296"/>
  <g>
    <path class="cls-1" d="M728.56,256.84h272.18c30.02,0,54.23,24.36,54.23,54.23v673.86c0,30.02-24.36,54.23-54.23,54.23h-272.18c-30.02,0-54.23-24.36-54.23-54.23V311.07c0-29.87,24.36-54.23,54.23-54.23Z"/>
    <path class="cls-2" d="M873.14,327.46v98.46c0,24.51-19.87,44.23-44.37,44.37h-86.14c-24.51,0-44.23-19.87-44.23-44.37v-98.46c0-24.51,19.87-44.23,44.23-44.23h86.28c24.36,0,44.23,19.72,44.23,44.23h0Z"/>
    <path class="cls-1" d="M865.45,319.77v98.46c0,24.51-19.87,44.23-44.37,44.37h-86.14c-24.51,0-44.23-19.87-44.23-44.37v-98.46c0-24.51,19.87-44.23,44.23-44.23h86.14c24.51-.15,44.37,19.72,44.37,44.23Z"/>
    <path class="cls-2" d="M801.21,462.46l-63.37,4.35c-8.41,0-19.14-6.67-25.81-10.73-12.76-7.83-21.46-21.9-21.46-37.99v-98.32c0-24.51,19.87-44.23,44.23-44.23h.87l65.54,186.92Z"/>
    <g>
      <path class="cls-1" d="M666.35,471.89h25.23v86.57h-25.23v-86.57Z"/>
      <path class="cls-1" d="M1036.42,525.4h25.23v50.46h-25.23v-50.46Z"/>
      <path class="cls-1" d="M1036.42,457.68h25.23v50.46h-25.23v-50.46Z"/>
      <path class="cls-1" d="M1036.42,412h25.23v28.28h-25.23v-28.28Z"/>
      <circle class="cls-1" cx="738.13" cy="411.13" r="34.22"/>
    </g>
    <path class="cls-4" d="M746.11,411.13c0,5.22-2.76,7.98-7.98,7.98-1.45,0-2.76,1.16-3.92.58-3.19-1.45-5.37-4.79-5.37-8.56,0-5.22,4.21-9.43,9.43-9.43,3.48,0,6.67,1.89,8.27,4.93.73,1.45-.44,3.05-.44,4.5Z"/>
    <path class="cls-2" d="M747.56,411.13c0,5.22-4.21,9.43-9.43,9.43-1.6,0-3.05-.44-4.5-1.16-2.47-4.64-.73-10.3,3.92-12.76,1.31-.73,2.9-1.16,4.5-1.16s3.05.44,4.5,1.16c.73,1.45,1.02,3.05,1.02,4.5Z"/>
    <circle class="cls-4" cx="820.79" cy="365.89" r="34.22" transform="translate(328.15 1117.47) rotate(-80.78)"/>
    <path class="cls-1" d="M830.21,365.89c0,5.22-4.21,9.43-9.43,9.43s-9.43-4.21-9.43-9.43,4.21-9.43,9.43-9.43c3.48,0,6.67,1.89,8.27,4.93.87,1.31,1.16,2.9,1.16,4.5Z"/>
    <path class="cls-2" d="M830.21,365.89c0,5.22-4.21,9.43-9.43,9.43-1.6,0-3.05-.44-4.5-1.16-2.47-4.64-.73-10.3,3.92-12.76,1.31-.73,2.9-1.16,4.5-1.16s3.05.44,4.5,1.16c.73,1.31,1.02,2.9,1.02,4.5Z"/>
    <circle class="cls-4" cx="821.08" cy="301.79" r="15.23"/>
    <circle class="cls-2" cx="821.08" cy="430.12" r="15.23"/>
    <path class="cls-4" d="M884.16,679.39c-1.89,1.02-3.92,2.03-5.95,2.76-1.6.58-3.34-3.19-4.93-2.61-17.98,5.37-33.06,4.21-40.75-10.15-9.28-17.11-3.48-36.11,18.13-47.85,1.31-.73,2.76-5.8,4.06-6.38,20.59-8.99,43.21-4.06,51.77,12.04,9.28,17.26-.73,40.6-22.33,52.2h0Z"/>
    <path class="cls-2" d="M878.21,682.15c-20.16,7.98-41.62,2.9-49.88-12.76-9.28-17.11.87-40.46,22.48-52.2,1.31-.73,2.76-1.45,4.06-2.03l23.35,66.99Z"/>
    <path class="cls-4" d="M772.5,321.95c0,10.3-4.5,19.58-11.75,25.81-6.09,5.22-13.92,5.51-22.48,5.51-19,0-31.32-12.47-31.32-31.32s12.47-32.77,31.32-32.77c.58,0,1.31-1.45,1.89-1.45,18.13,1.02,32.34,16.1,32.34,34.22Z"/>
    <path class="cls-1" d="M761.04,347.61c-14.07,12.62-35.82,11.31-48.43-2.76-12.62-14.07-11.31-35.82,2.76-48.43,6.24-5.66,14.36-8.7,22.91-8.7h1.89l20.88,59.89Z"/>
    <path class="cls-4" d="M746.11,321.95c0,5.22-2.76,7.98-7.98,7.98-1.31,0-2.47,1.16-3.63.73-3.34-1.45-5.66-4.79-5.66-8.7,0-5.22,4.21-9.43,9.43-9.43,3.48,0,6.67,1.89,8.27,4.93.73,1.45-.44,3.05-.44,4.5Z"/>
    <path class="cls-2" d="M747.56,321.95c0,5.22-4.21,9.43-9.43,9.43-1.6,0-3.05-.44-4.5-1.16-2.47-4.64-.73-10.3,3.92-12.76,1.31-.73,2.9-1.16,4.5-1.16s3.05.44,4.5,1.16c.73,1.45,1.02,3.05,1.02,4.5Z"/>
  </g>
</svg>