<?xml version="1.0" encoding="UTF-8"?>
<svg id="Layer_1" data-name="Layer 1" xmlns="http://www.w3.org/2000/svg" viewBox="0 0 1728 1296">
  <defs>
    <style>
      .cls-1 {
        fill: #f6f6f6;
      }

      .cls-1, .cls-2, .cls-3, .cls-4, .cls-5, .cls-6, .cls-7, .cls-8, .cls-9 {
        stroke-width: 0px;
      }

      .cls-2 {
        fill: #475eab;
      }

      .cls-3 {
        fill: #6e84c2;
      }

      .cls-4 {
        fill: #364ea1;
      }

      .cls-5 {
        fill: #1e1e1e;
      }

      .cls-6 {
        fill: #e2dc21;
      }

      .cls-7 {
        fill: #b4d45b;
      }

      .cls-8 {
        fill: #ffd14e;
      }

      .cls-9 {
        fill: #f6aacb;
      }
    </style>
  </defs>
  <rect class="cls-6" width="1728" height="1296"/>
  <g>
    <g>
      <path class="cls-5" d="M1243.59,863.68c-1.7-17.4-103.69-391.76-110.18-404.84-6.49-13.08-43.03-42.88-60.34-47.97-1.13-.33-4.29-.5-9.19-.52-4.9-.02-15.16-14.86-19.43-16.26-4.27-1.4-68.93.77-71.13,2.19s-9.41,18.26-9.41,18.26h0c-85.22,4.8-203.23,12.9-290.54,19.95,0,0-7.1-17.02-9.77-18.36s-78.15,4.91-81.93,8.36-5.02,18.84-5.02,18.84c-12.16,1.4-19.66,2.56-21.15,3.39-13.25,7.37-32.23,43.16-37.76,56.21-5.53,13.05-61.69,333.85-59.58,345.59,2.11,11.73,14.36,43.34,21.98,50.28,7.61,6.94,66.7,16.65,76.73,14.69,10.03-1.96,37.11-27.84,43.59-34.83,5.33-5.76,39.3-92.85,57.47-129.08,1.69,2.44,3.53,4.78,5.5,6.99,25.5,28.63,68.45,31.98,95.92,7.47,10.96-9.77,17.79-22.5,20.44-36.08,42.93-.59,91.77-.55,134.61-.05.36,1.29.76,2.56,1.2,3.82,12.12,34.76,51.29,52.69,87.48,40.04,13.55-4.74,24.77-13.09,32.86-23.51,19.92,39.95,60.38,140.89,64.66,148.09,5.24,8.82,34.98,32.02,45.84,34.66,10.86,2.65,68.43-7.96,76.19-14.13s22.28-39.8,20.97-53.21h0Z"/>
      <path class="cls-5" d="M499.64,907.57c-9.99-2.39-18.01-5.02-20.69-7.47-8.22-7.5-20.46-39.78-22.52-51.26-1.5-8.37,22.17-145.5,26.93-172.91,14.09-81.13,29.87-166.84,32.77-173.67,5.07-11.95,24.39-49.2,38.52-57.06.72-.4,2.39-1.33,20.39-3.44.44-4.42,1.87-15.28,5.46-18.56,2.02-1.84,16.28-4,42.4-6.43,6.47-.6,38.86-3.53,41.49-2.21,1.17.58,4.01,3.73,10.1,18.08,87.53-7.05,203-14.98,288.25-19.79,2.83-6.55,7.45-16.63,9.64-18.04,1.39-.9,13.39-1.71,35.67-2.43,7.86-.25,33.75-1.01,36.94.05,4.21,1.38,16.62,13.27,19.6,16.18,6.38.05,8.18.36,8.97.59,18.35,5.4,54.92,35.81,61.41,48.87,6.59,13.27,108.69,388.41,110.36,405.45,1.33,13.68-13.23,48.07-21.63,54.75-8.11,6.44-66.07,17.24-77.65,14.47h-.04c-11.55-2.83-41.46-26.29-46.92-35.48-1.72-2.9-8.59-19.24-18.11-41.87-14.07-33.46-33.16-78.88-45.41-103.9-8.39,10-19.38,17.56-31.92,21.94-17.93,6.27-37.13,5.45-54.07-2.3-16.96-7.76-29.62-21.55-35.64-38.81-.31-.88-.6-1.77-.86-2.67-44.02-.51-91.91-.49-131.87.05-3.01,13.94-10.15,26.25-20.71,35.66-13.65,12.17-31.4,18.08-50,16.63-18.57-1.45-35.75-10.05-48.39-24.24-1.37-1.54-2.68-3.14-3.92-4.79-8.93,18.22-21.18,47.18-32.04,72.87-13.35,31.57-21.68,51.06-24.42,54.03-3.76,4.06-33.01,33.11-44.54,35.36-6.75,1.32-36.51-2.61-57.55-7.64h0ZM582.81,425.82c-2.36,2.25-3.96,12-4.42,17.66-.07.83-.71,1.5-1.54,1.59-16.79,1.94-19.93,2.87-20.51,3.19-12.61,7.01-31.32,41.97-37.01,55.37-2.43,5.72-16.42,80.06-32.54,172.9-16.72,96.27-27.79,166.87-26.93,171.69,2.17,12.06,14.51,42.99,21.43,49.3,6.73,6.14,64.97,16.27,75.22,14.27,9.27-1.81,35.56-26.66,42.65-34.31,2.47-2.67,13.3-28.26,23.77-53.02,11.42-26.99,24.36-57.58,33.42-75.66.43-.86,1.48-1.21,2.34-.78.26.13.49.33.65.57,1.65,2.38,3.44,4.66,5.37,6.83,12.03,13.51,28.39,21.71,46.05,23.08,17.64,1.37,34.47-4.22,47.4-15.75,10.33-9.21,17.21-21.35,19.89-35.11.16-.81.86-1.4,1.69-1.41,40.65-.56,89.73-.58,134.65-.05.77.01,1.45.53,1.66,1.27.35,1.25.74,2.49,1.16,3.72,5.7,16.36,17.71,29.43,33.79,36.79,16.11,7.37,34.39,8.15,51.47,2.18,12.79-4.47,23.88-12.4,32.05-22.94.37-.47.95-.73,1.55-.67.6.06,1.12.42,1.39.96,12.22,24.51,32.15,71.92,46.71,106.54,9.1,21.65,16.29,38.75,17.89,41.43,4.94,8.32,34.32,31.32,44.75,33.86h.03c10.33,2.48,67.46-8.08,74.66-13.8,7.01-5.57,21.63-38.21,20.32-51.67-1.66-16.99-103.44-391-110.01-404.23-6.09-12.26-41.94-41.98-59.26-47.07-.42-.13-2.14-.42-8.71-.45-.45,0-.89-.18-1.21-.5-5.75-5.63-15.92-14.92-18.76-15.85-.03,0-.06-.02-.09-.02-4.76-1.14-64.19.65-69.62,2.09-1.3,1.3-5.45,9.89-8.63,17.32-.24.65-.85,1.1-1.54,1.14-85.74,4.83-202.48,12.84-290.5,19.95-.73.06-1.47-.4-1.76-1.08-3.64-8.7-7.48-16.21-8.87-17.4-2.51-.34-19.13.59-39.94,2.53-25.35,2.36-38.4,4.48-40.14,5.54h0Z"/>
    </g>
    <g>
      <g>
        <path class="cls-4" d="M601.66,414.27s1.24-15.4,5.03-18.86c3.79-3.46,79.4-9.7,82.07-8.36,2.67,1.34,9.79,18.38,9.79,18.38l-96.89,8.84Z"/>
        <path class="cls-4" d="M601.26,415.97c-.84-.2-1.41-.98-1.34-1.84.22-2.69,1.51-16.28,5.59-20.01,2.02-1.84,16.31-4.01,42.47-6.43,3.97-.37,38.87-3.56,41.56-2.2,2.83,1.42,7.87,12.68,10.62,19.27.37.89-.05,1.91-.94,2.29-.16.07-.34.11-.52.13l-96.89,8.84c-.19.02-.38,0-.57-.04ZM607.83,396.74c-2.1,2-3.6,9.89-4.23,15.6l92.4-8.43c-2.98-6.88-6.56-14.05-7.96-15.23-2.51-.34-19.16.59-40.01,2.52-25.39,2.36-38.46,4.48-40.21,5.54ZM989.59,385.49s7.22-16.86,9.42-18.28c2.2-1.42,66.97-3.59,71.25-2.18,4.28,1.4,19.47,16.28,19.47,16.28l-100.14,4.18Z"/>
        <path class="cls-4" d="M989.18,387.19c-.94-.22-1.52-1.17-1.29-2.11.02-.1.05-.19.09-.28,2.77-6.48,7.77-17.57,10.08-19.06,1.73-1.12,20.39-1.94,35.74-2.43,7.88-.25,33.83-.99,37.01.05,4.54,1.49,18.56,15.14,20.15,16.69.69.68.7,1.78.02,2.47-.31.32-.73.5-1.17.52l-100.14,4.18c-.16,0-.32,0-.48-.05ZM999.88,368.76c-1.16,1.16-4.58,8.11-7.57,14.87l93.26-3.89c-5.79-5.48-13.45-12.26-15.85-13.04-4.04-1.21-64.35.61-69.83,2.06h0Z"/>
      </g>
      <path class="cls-2" d="M483.01,819.91c2.11,11.74,14.39,43.39,22.02,50.34,7.63,6.95,66.82,16.68,76.86,14.72,10.05-1.96,37.17-27.87,43.66-34.87,6.49-7,55.24-134.02,66.62-144.22,11.38-10.19,350.34-7.88,359.89-2.23,9.55,5.64,69.24,155.4,74.5,164.24s35.05,32.06,45.92,34.71c10.88,2.65,68.55-7.96,76.32-14.13,7.77-6.17,22.32-39.84,21-53.27-1.7-17.42-103.92-392.22-110.43-405.32-6.51-13.1-43.11-42.94-60.45-48.04-17.34-5.1-505.18,28.45-518.46,35.83-13.28,7.38-32.28,43.21-37.82,56.27-5.54,13.06-61.75,334.23-59.64,345.97h0Z"/>
      <path class="cls-2" d="M524.58,879.02c-10-2.39-18.04-5.03-20.72-7.48-8.24-7.51-20.5-39.83-22.56-51.32-1.51-8.38,22.18-145.66,26.95-173.1,14.1-81.22,29.9-167.02,32.8-173.86,5.07-11.96,24.43-49.25,38.58-57.12,8.1-4.5,166.26-16.45,258.44-22.81,91.56-6.31,248.91-16.16,261.16-13.22.07.02.14.04.21.05,18.38,5.41,55.02,35.86,61.52,48.94,6.6,13.29,108.94,388.87,110.6,405.93,1.34,13.69-13.24,48.13-21.66,54.81-8.12,6.45-66.18,17.25-77.78,14.47h-.04c-11.57-2.83-41.54-26.33-47.01-35.52-1.72-2.9-8.61-19.26-18.14-41.91-10.01-23.79-22.47-53.4-33.27-77.6-16.25-36.43-21.06-43.28-22.48-44.12-5.18-2.49-87.08-4.57-178.87-4.58-118.1,0-174.99,3.32-178.97,6.61-6.38,5.71-26.15,52.45-42.04,90.01-13.37,31.6-21.71,51.12-24.46,54.09-3.77,4.06-33.07,33.14-44.61,35.39-6.76,1.32-36.57-2.62-57.65-7.66h0ZM1098.29,383.47c-8.62-2.06-117.5,3.52-259.88,13.34-143.3,9.88-251.42,19.29-257.09,22.38-12.63,7.02-31.37,42.01-37.06,55.42-2.43,5.73-16.43,80.15-32.57,173.1-16.74,96.38-27.82,167.06-26.95,171.88,2.17,12.08,14.54,43.04,21.48,49.36,6.74,6.14,65.08,16.3,75.35,14.29,9.29-1.82,35.62-26.69,42.71-34.34,2.48-2.67,13.32-28.3,23.8-53.08,16.86-39.85,35.97-85.02,42.93-91.25,1.22-1.09,4.46-3.99,60.8-5.89,31.09-1.05,74.06-1.62,121-1.61,66.35,0,173.92,1.39,180.15,5.06,6.5,3.84,29.74,58.15,57.19,123.37,9.12,21.67,16.32,38.78,17.92,41.48,4.95,8.33,34.39,31.36,44.83,33.9h.03c10.35,2.48,67.58-8.08,74.78-13.8,7.02-5.58,21.67-38.25,20.35-51.73-1.66-17.01-103.68-391.47-110.26-404.71-6.1-12.28-42.02-42.03-59.37-47.14-.05-.02-.1-.03-.15-.04h0Z"/>
      <path class="cls-4" d="M1060.79,675.34c-11.11-5.48-367.48-7.55-374.9-1.5-7.43,6.05-68.51,149.13-70.41,159.5-1.12,6.12-1,18.76-.22,26.91,4.6-4.31,8.37-8.08,10.3-10.16,6.49-7,55.24-134.02,66.62-144.22,11.38-10.19,350.34-7.88,359.89-2.23,9.55,5.64,69.24,155.4,74.5,164.24,1.45,2.44,4.78,5.98,9.06,9.88.29-12.63.29-26.78-.94-32.04-2.43-10.33-62.78-164.91-73.89-170.39h0Z"/>
      <path class="cls-4" d="M614.85,861.96c-.73-.17-1.26-.79-1.33-1.54-.79-8.24-.92-21.06.25-27.4,1.04-5.67,17.72-46.02,33.25-81.75,9.71-22.35,32.83-74.76,37.77-78.79,1-.82,3.1-2.52,61.22-3.48,33.2-.55,77.93-.72,125.96-.49,67.13.33,182.6,1.79,189.6,5.25,2.05,1.01,5.8,5.14,16.7,28.31,6.55,13.91,14.97,33.27,24.34,55.97,16.28,39.41,32.45,81.63,33.77,87.28,1.05,4.49,1.39,15.41.99,32.48-.02.97-.83,1.73-1.79,1.71-.42-.01-.82-.17-1.13-.45-3.26-2.97-7.53-7.16-9.39-10.28-1.73-2.9-8.61-19.27-18.14-41.92-10.01-23.79-22.47-53.4-33.26-77.6-16.25-36.43-21.06-43.27-22.48-44.11-5.18-2.49-87.08-4.57-178.87-4.58-118.1,0-174.99,3.32-178.97,6.61-6.38,5.71-26.15,52.45-42.04,90.01-13.37,31.6-21.71,51.12-24.46,54.09-1.76,1.89-5.41,5.58-10.39,10.25-.43.4-1.03.56-1.6.42h0ZM686.92,675.26c-2.56,2.38-14.84,27.1-36.7,77.41-17.33,39.88-32.14,76.21-33.02,80.99-.92,5.03-.98,15-.49,22.81,3.56-3.4,6.17-6.06,7.56-7.56,2.48-2.67,13.32-28.3,23.8-53.08,16.86-39.85,35.97-85.02,42.93-91.25,1.22-1.09,4.46-3.99,60.8-5.89,31.09-1.05,74.06-1.62,121-1.61,66.35,0,173.92,1.37,180.15,5.06,6.5,3.84,29.74,58.14,57.19,123.36,9.12,21.67,16.32,38.79,17.93,41.48.98,1.64,3.03,4,5.89,6.8.25-14.34-.08-23.86-.98-27.66-1.16-4.95-16.68-45.78-33.6-86.75-30.35-73.47-37.8-81.7-39.36-82.47-4.98-2.28-85.13-4.37-186.49-4.89-102.79-.52-181.08.84-186.61,3.24h0Z"/>
      <path class="cls-3" d="M1124.08,395.91c-9.36-6.72-18.62-12.15-25.15-14.07-17.34-5.1-505.18,28.45-518.46,35.83-8.53,4.74-19.42,21.22-27.59,35.86,13.72-7.38,30.98-16.49,36.19-18.51,8.1-3.14,444.47-32.95,535.01-39.11h0Z"/>
      <path class="cls-3" d="M552.48,455.23c-.94-.23-1.52-1.17-1.29-2.11.04-.16.1-.3.17-.44,6.29-11.27,18.32-31.01,28.26-36.54,8.1-4.5,166.26-16.45,258.44-22.81,91.56-6.31,248.91-16.16,261.16-13.22.07.02.14.04.21.05,6.26,1.84,15.37,6.93,25.67,14.33.78.56.96,1.66.4,2.44-.3.42-.78.69-1.3.73-241.62,16.43-526.59,36.51-534.53,39.01-4.03,1.56-16.47,7.93-35.96,18.41-.38.2-.82.26-1.24.16h0ZM1098.29,383.47c-8.62-2.06-117.5,3.52-259.88,13.34-143.3,9.88-251.42,19.29-257.09,22.38-6.06,3.36-14.64,14.14-23.9,29.91,12.54-6.7,26.39-13.93,31.01-15.72,8.03-3.11,401.56-30.11,530.58-38.89-8.29-5.64-15.5-9.49-20.57-10.98-.05-.02-.1-.03-.15-.04h0Z"/>
      <path class="cls-1" d="M617.23,516.1s-2.99-42.67-.37-45.63c2.63-2.96,37.38-13.09,40.86-10.26s4.26,50.34,4.26,50.34c0,0,46.73-5.54,49.51-3.45s8.5,32.96,6.43,37.06c-2.06,4.11-46.2,12.45-46.2,12.45,0,0,4.65,41.08,2.1,43.64s-36.12,9.19-41.38,7.35c-5.26-1.84-8.15-43.16-8.15-43.16,0,0-45.25,6.24-47.82,4.82-2.57-1.42-6.93-39.99-3.55-43.97,3.38-3.98,44.29-9.19,44.29-9.19h0Z"/>
      <path class="cls-1" d="M632.23,609.35c-.12-.03-.24-.06-.36-.1-2.24-.78-4.66-4.19-7.2-23.69-1.03-7.86-1.7-15.67-1.97-19.13-3.68.5-12.36,1.65-21.14,2.69-23.82,2.83-25.09,2.13-25.92,1.67-.88-.49-1.78-1.49-3.03-8.35-1.26-6.88-4.7-33.94-1.01-38.29,3.37-3.97,32.49-8.11,43.77-9.58-.23-3.43-.74-11.7-1.06-20.11-.87-22.78.5-24.32,1.24-25.15,2.51-2.83,20.21-7.63,20.96-7.83,19.18-5.17,21.53-3.26,22.31-2.63.97.79,2.78,2.26,4.08,27.5.48,9.24.71,18.37.79,22.24,3.81-.44,12.77-1.44,21.84-2.29,24.74-2.31,26.16-1.24,27.01-.6,2.34,1.76,4.58,12.58,5.7,18.86.91,5.07,2.84,17.19,1.24,20.38-.58,1.15-1.66,3.3-25.04,8.68-8.7,2-17.33,3.72-20.8,4.39.36,3.31,1.19,11.26,1.83,19.31,1.75,21.98.45,23.29-.41,24.15-3.4,3.41-36.41,9.41-42.83,7.87h0ZM633.07,605.96c4.66,1.51,35.8-4.51,39.42-6.89,1.08-3.04-.4-23.69-2.5-42.27-.1-.91.51-1.74,1.41-1.92,20.4-3.86,42.71-9.22,44.99-11.58.44-1.13.41-6.78-1.51-17.64-1.74-9.91-3.62-15.89-4.43-17.11h-.03c-3.47-.84-26.96,1.21-48.24,3.73-.96.11-1.83-.57-1.94-1.53,0-.06-.01-.12-.01-.18-.36-21.88-1.82-45.96-3.64-49-4.14-1.49-35.26,7.32-38.37,10.01-1.28,2.82-.63,24.68.75,44.39.06.93-.6,1.74-1.52,1.86-19.58,2.49-41.09,6.39-43.19,8.59-.72.98-1.36,7.36-.12,20.83,1.02,11.06,2.53,18.62,3.35,20.44,3.9.39,26.47-2.22,46.56-4.99.96-.13,1.84.53,1.97,1.49,0,.04,0,.08.01.12,0,.1.71,9.99,2.01,20.16,2.42,18.84,4.68,21.23,5.02,21.49h0Z"/>
      <ellipse class="cls-2" cx="738.45" cy="683.47" rx="66.75" ry="69.53" transform="translate(-267.55 663.2) rotate(-41.63)"/>
      <path class="cls-2" d="M724.77,751.55c-13.91-3.33-27.1-10.88-37.45-22.5-12.66-14.2-19.25-32.3-18.56-50.94.69-18.67,8.6-35.67,22.27-47.85,28.2-25.13,72.41-21.71,98.56,7.63,26.15,29.34,24.48,73.66-3.71,98.79-17.03,15.18-39.9,19.94-61.1,14.87h0ZM751.31,618.79c-20.13-4.82-41.82-.31-57.96,14.08-12.95,11.54-20.44,27.66-21.1,45.37-.66,17.74,5.62,34.96,17.67,48.49,9.86,11.07,22.43,18.27,35.66,21.43,20.13,4.82,41.82.31,57.96-14.08,26.76-23.85,28.29-65.95,3.43-93.86-9.86-11.07-22.43-18.27-35.66-21.43h0Z"/>
      <ellipse class="cls-5" cx="738.45" cy="683.47" rx="40.95" ry="42.66" transform="translate(-267.55 663.19) rotate(-41.63)"/>
      <path class="cls-5" d="M729.86,725.91c-8.9-2.13-17-6.97-23.29-14.03-16.29-18.28-15.24-45.9,2.33-61.56,8.52-7.6,19.61-11.28,31.23-10.38,11.58.9,22.31,6.27,30.19,15.12,16.29,18.28,15.24,45.9-2.33,61.56-8.52,7.6-19.61,11.28-31.23,10.38-2.33-.18-4.64-.55-6.91-1.09ZM746.22,644.43c-2.08-.5-4.2-.83-6.36-1-10.66-.83-20.82,2.54-28.63,9.5-16.14,14.38-17.05,39.79-2.05,56.63,7.28,8.17,17.17,13.13,27.85,13.96,10.66.83,20.82-2.54,28.63-9.5,16.14-14.38,17.05-39.79,2.05-56.63-5.81-6.52-13.28-10.99-21.49-12.96h0Z"/>
      <ellipse class="cls-2" cx="1006.87" cy="680.14" rx="69.53" ry="66.75" transform="translate(-168.32 371.42) rotate(-19.32)"/>
      <path class="cls-2" d="M988.39,747.02c-4.48-1.07-8.87-2.58-13.11-4.52-16.99-7.77-29.67-21.58-35.7-38.86-6.03-17.29-4.7-35.98,3.76-52.64,8.45-16.64,22.99-29.25,40.96-35.52,37.11-12.96,77.42,5.51,89.87,41.18,6.03,17.29,4.7,35.98-3.76,52.64-8.45,16.64-22.99,29.25-40.96,35.52-13.46,4.7-27.65,5.42-41.05,2.21h0ZM1024.56,616.7c-12.44-2.98-25.99-2.52-39.11,2.06-17.11,5.97-30.95,17.98-38.99,33.81-8.03,15.8-9.3,33.53-3.58,49.91,5.72,16.38,17.74,29.46,33.86,36.84,16.14,7.38,34.45,8.16,51.56,2.19,17.11-5.97,30.95-17.98,38.99-33.81,8.03-15.8,9.3-33.53,3.58-49.91-7.42-21.25-25.29-36.06-46.3-41.09h0Z"/>
      <ellipse class="cls-5" cx="1006.87" cy="680.14" rx="45.19" ry="43.38" transform="translate(-168.32 371.43) rotate(-19.32)"/>
      <path class="cls-5" d="M994.7,724.16c-14.58-3.49-26.99-13.78-32.15-28.56-8.2-23.49,5.01-49.55,29.44-58.08,11.82-4.13,24.49-3.59,35.66,1.52,11.2,5.12,19.55,14.22,23.53,25.61,3.98,11.39,3.1,23.71-2.48,34.69-5.56,10.95-15.14,19.26-26.96,23.39-9.07,3.17-18.43,3.48-27.04,1.42h0ZM1018.21,639.48c-8.18-1.96-16.84-1.52-25.06,1.35-22.61,7.9-34.86,31.95-27.29,53.63,7.57,21.67,32.12,32.88,54.73,24.99,10.97-3.83,19.84-11.52,25-21.67,5.14-10.12,5.95-21.47,2.3-31.96-3.66-10.49-11.36-18.86-21.68-23.58-2.57-1.18-5.24-2.1-7.99-2.76h0Z"/>
      <ellipse class="cls-1" cx="1064.84" cy="459.29" rx="24.31" ry="23.2" transform="translate(-28.36 72.32) rotate(-3.84)"/>
      <path class="cls-1" d="M1058.41,483.52c-10.65-2.55-18.83-11.44-19.57-22.5-.91-13.73,10.01-25.67,24.35-26.62,14.33-.95,26.74,9.45,27.65,23.17.44,6.67-1.86,13.11-6.47,18.14-4.6,5.01-10.94,8.02-17.87,8.48-2.71.18-5.44-.04-8.08-.68ZM1070.46,438.47c-2.24-.54-4.61-.75-7.04-.59-12.41.82-21.87,11.1-21.09,22.9.78,11.8,11.51,20.74,23.93,19.91,6.03-.4,11.54-3.01,15.53-7.36,3.96-4.32,5.94-9.84,5.56-15.55-.63-9.49-7.69-17.13-16.89-19.33h0Z"/>
      <ellipse class="cls-8" cx="1071.03" cy="552.6" rx="24.31" ry="23.2" transform="translate(-34.59 72.95) rotate(-3.84)"/>
      <path class="cls-8" d="M1064.6,576.83c-10.65-2.55-18.83-11.44-19.57-22.5-.91-13.73,10.01-25.67,24.35-26.62,14.33-.95,26.74,9.45,27.65,23.17.44,6.67-1.86,13.11-6.47,18.14-4.6,5.01-10.94,8.02-17.87,8.48-2.71.18-5.44-.04-8.08-.68h0ZM1076.65,531.78c-2.24-.54-4.61-.75-7.04-.59-12.41.82-21.87,11.1-21.09,22.9.78,11.8,11.52,20.73,23.93,19.91,6.03-.4,11.54-3.01,15.53-7.36,3.96-4.32,5.94-9.84,5.56-15.55-.63-9.49-7.69-17.13-16.89-19.33h0Z"/>
      <ellipse class="cls-7" cx="1114.58" cy="502.85" rx="23.2" ry="24.31" transform="translate(-30.54 74.08) rotate(-3.76)"/>
      <path class="cls-7" d="M1109.1,528.25c-4.01-.96-7.75-2.95-10.94-5.87-5.01-4.6-8.02-10.94-8.48-17.87s1.69-13.62,6.05-18.84c4.38-5.24,10.46-8.37,17.13-8.81,6.67-.44,13.11,1.86,18.14,6.47,5.01,4.6,8.02,10.94,8.48,17.87.46,6.93-1.69,13.62-6.05,18.84-4.38,5.24-10.46,8.37-17.13,8.82-2.42.16-4.85-.04-7.2-.6h0ZM1119.24,480.85c-1.99-.48-4.06-.65-6.15-.52-5.7.38-10.91,3.07-14.67,7.57-3.78,4.52-5.64,10.34-5.24,16.36.4,6.03,3.01,11.54,7.36,15.53,4.32,3.96,9.84,5.94,15.54,5.56,5.7-.38,10.91-3.07,14.67-7.57,3.78-4.52,5.64-10.34,5.24-16.36-.4-6.03-3.01-11.54-7.36-15.53-2.74-2.51-5.95-4.22-9.39-5.05h0Z"/>
      <ellipse class="cls-9" cx="1021.28" cy="509.04" rx="23.2" ry="24.31" transform="translate(-31.15 67.98) rotate(-3.76)"/>
      <path class="cls-9" d="M1015.8,534.44c-4.01-.96-7.75-2.95-10.94-5.87-5.01-4.6-8.02-10.94-8.48-17.87-.46-6.93,1.69-13.62,6.05-18.84,4.38-5.24,10.46-8.37,17.13-8.81,6.67-.44,13.11,1.86,18.14,6.47,5.01,4.6,8.02,10.94,8.48,17.87.95,14.34-9.44,26.74-23.17,27.65-2.42.16-4.85-.04-7.2-.6h0ZM1025.94,487.05c-1.99-.48-4.06-.65-6.15-.52-5.7.38-10.91,3.07-14.67,7.57-3.78,4.52-5.64,10.34-5.24,16.36.4,6.03,3.01,11.54,7.36,15.53,4.32,3.96,9.84,5.94,15.54,5.56,11.8-.78,20.74-11.52,19.91-23.93-.4-6.03-3.01-11.54-7.36-15.53-2.74-2.51-5.95-4.22-9.39-5.05h0Z"/>
      <path class="cls-4" d="M757.2,521.35c10.87,7.64,185.24-1.89,192.88-15.2,6.53-11.39,9.05-95.04,9.65-118.92-66.61,3.97-146.72,9.42-216.14,14.69.95,28.06,4.56,113.07,13.62,119.44h0Z"/>
      <path class="cls-4" d="M759.3,523.96c-1.4-.34-2.46-.72-3.1-1.18-2.8-1.97-6.94-9.59-10.59-52.87-2.14-25.44-3.28-53.49-3.77-67.94-.03-.94.68-1.73,1.62-1.8,69.4-5.27,150.21-10.76,216.17-14.69.49-.03.97.15,1.32.49.35.34.55.81.53,1.3-.8,32.22-3.36,108.38-9.88,119.75-1,1.75-3.77,4.11-16.46,6.93-24.17,5.37-68.68,9.05-102.27,10.69-10.51.52-59.47,2.69-73.57-.68h0ZM745.39,403.53c.52,14.84,1.65,41.67,3.71,66.09,3.55,42.11,7.56,49.21,9.12,50.31,3.22,2.27,29.84,3.41,74.49,1.23,33.45-1.64,77.72-5.29,101.68-10.62,11.88-2.64,13.86-4.69,14.18-5.25,4.94-8.61,8.06-65.3,9.37-116.2-65.06,3.89-144.21,9.27-212.54,14.44h0Z"/>
    </g>
  </g>
</svg>