<?xml version="1.0" encoding="UTF-8"?>
<svg id="Layer_1" data-name="Layer 1" xmlns="http://www.w3.org/2000/svg" viewBox="0 0 1728 1296">
  <defs>
    <style>
      .cls-1 {
        fill: #4d7fc1;
      }

      .cls-1, .cls-2, .cls-3 {
        stroke-width: 0px;
      }

      .cls-2 {
        fill: #9ac0e6;
      }

      .cls-3 {
        fill: #e2dc21;
      }
    </style>
  </defs>
  <rect class="cls-3" width="1728" height="1296"/>
  <g>
    <path class="cls-1" d="M822.9,861.49h-407.22c-18.3,0-33.13-14.83-33.13-33.13h473.48c0,18.3-14.83,33.13-33.13,33.13Z"/>
    <path class="cls-1" d="M1193.72,861.49h-629.42c-12.2,0-18.95-9.88-15.07-22.08l121.53-382.81c3.88-12.2,16.89-22.08,29.1-22.08h629.42c12.2,0,18.95,9.88,15.07,22.08l-121.53,382.81c-3.86,12.19-16.89,22.08-29.1,22.08Z"/>
    <path class="cls-2" d="M939.05,701.37h-18.41c-24.39,0-37.89-19.78-30.15-44.17l5.84-18.41c7.74-24.39,33.8-44.17,58.19-44.17h18.41c24.39,0,37.89,19.78,30.15,44.17l-5.84,18.41c-7.75,24.39-33.8,44.17-58.19,44.17Z"/>
  </g>
</svg>