<?xml version="1.0" encoding="UTF-8"?>
<svg id="Layer_1" data-name="Layer 1" xmlns="http://www.w3.org/2000/svg" viewBox="0 0 1728 1296">
  <defs>
    <style>
      .cls-1 {
        fill: none;
      }

      .cls-1, .cls-2, .cls-3, .cls-4, .cls-5 {
        stroke-width: 0px;
      }

      .cls-2 {
        fill: #4b68b1;
      }

      .cls-3 {
        fill: #222160;
      }

      .cls-4 {
        fill: #e2dc21;
      }

      .cls-5 {
        fill: #fff;
      }
    </style>
  </defs>
  <rect class="cls-4" width="1728" height="1296"/>
  <g>
    <g>
      <path class="cls-2" d="M991.9,720.11c-1.01-5.74,2.82-11.22,8.56-12.23l-5.02-2.85-11.97,2.11c-5.74,1.01-13.32,10.23-12.3,15.97s10.23,13.32,15.97,12.3l12.5-2.21,4.49-4.53c-5.74,1.01-11.22-2.82-12.23-8.56Z"/>
      <path class="cls-2" d="M989.73,777.45c-1.01-5.74,2.82-11.22,8.56-12.23l-4.51-2.94-12.48,2.2c-5.74,1.01-13.32,10.23-12.3,15.97,1.01,5.74,10.23,13.32,15.97,12.3l11.96-2.11,5.02-4.63c-5.74,1.01-11.21-2.83-12.23-8.57Z"/>
      <path class="cls-2" d="M980.31,834.27c-1.01-5.74,2.82-11.22,8.56-12.23l-4.63-2.93-12.36,2.18c-5.74,1.01-13.32,10.23-12.3,15.97,1.01,5.74,10.23,13.32,15.97,12.3l12.65-2.23,4.33-4.5c-5.74,1.01-11.22-2.82-12.23-8.56Z"/>
      <path class="cls-2" d="M965.17,881.85c-1.01-5.74,2.82-11.22,8.56-12.23l-5.06-2.85-11.92,2.11c-5.74,1.01-13.32,10.23-12.3,15.97,1.01,5.74,10.23,13.32,15.97,12.3l11.91-2.1,5.08-4.64c-5.75,1.01-11.22-2.82-12.24-8.56Z"/>
    </g>
    <path class="cls-3" d="M878.75,509.21l24.15-13.65-16.23-40.02-19,10.44c-5.05,2.78-8.6,7.1-9.21,12.07-.25,2.11,7.5.6,8.42,2.87l11.86,28.29Z"/>
    <path class="cls-3" d="M1084.58,462.18l-182.28,33.49-16-40.06,172.8-30.5c5.55-.98,12.11-.3,16.53,2.66,3.45,2.31-2.3,6.25-.67,10.34l9.62,24.08Z"/>
    <path class="cls-3" d="M1104.16,601.91c-31.05-176.11-123.26-298.21-215.13-282.01-35.28,6.25-64.27,25.55-84.84,66.17v.04c53.38,49.94,98.57,140.8,117.72,249.28,19.12,108.48,7.78,209.29-25.25,274.53,33.22,31.12,69.65,38.9,104.93,32.69,91.88-16.23,133.66-164.63,102.57-340.71ZM1014.12,883.92l-53.72,9.5c-5.72,1.01-11.22-2.84-12.23-8.57-.11-.64-.15-1.23-.15-1.83,0-5.05,3.59-9.5,8.72-10.4l53.72-9.5c5.76-1.01,11.22,2.84,12.23,8.57.11.64.15,1.23.15,1.87,0,5.01-3.59,9.46-8.72,10.36ZM1029.27,836.34l-53.72,9.5c-5.72,1.01-11.22-2.84-12.23-8.57-.11-.64-.15-1.23-.15-1.83,0-5.05,3.59-9.5,8.72-10.4l53.72-9.5c5.76-1.01,11.22,2.84,12.23,8.57.11.64.15,1.23.15,1.87,0,5.01-3.59,9.46-8.72,10.36ZM1038.7,779.52l-53.72,9.5c-5.76,1.01-11.22-2.84-12.23-8.57-.11-.64-.15-1.23-.15-1.87,0-5.01,3.59-9.46,8.72-10.36l53.72-9.5c5.72-1.01,11.22,2.84,12.23,8.57.11.64.15,1.23.15,1.83,0,5.05-3.59,9.5-8.72,10.4ZM1040.87,722.21l-53.72,9.46c-5.72,1.01-11.22-2.81-12.23-8.57-.11-.64-.15-1.23-.15-1.83,0-5.01,3.59-9.5,8.72-10.4l53.72-9.46c5.72-1.01,11.22,2.81,12.23,8.57.11.64.15,1.23.15,1.83,0,5.01-3.59,9.46-8.72,10.4Z"/>
    <path class="cls-2" d="M896.64,909.92c-53.35-49.96-98.54-140.81-117.69-249.31-19.15-108.49-7.79-209.31,25.24-274.52,20.57-40.63,49.56-67.44,84.84-73.67l-189.76,33.49c-39.73,7.01-71.49,40.16-92.24,89.76l87.39,495.15c36.47,39.5,77.66,59.77,117.39,52.76l189.72-33.48c-35.26,6.2-71.66-9.06-104.9-40.18Z"/>
    <path class="cls-2" d="M892.71,333.22c17.57-3.1,36.16.7,55.26,11.3,20.1,11.15,39.77,29.12,58.44,53.41,19.31,25.11,36.39,55.48,50.76,90.25,15.03,36.36,26.36,75.87,33.7,117.4s10.2,82.53,8.53,121.84c-1.6,37.59-7.25,71.96-16.8,102.17-9.24,29.21-21.56,52.82-36.63,70.18-14.32,16.5-30.49,26.43-48.05,29.53-17.57,3.1-36.16-.7-55.26-11.3-20.1-11.15-39.77-29.12-58.44-53.41-19.31-25.11-36.39-55.48-50.76-90.25-15.03-36.36-26.36-75.87-33.7-117.4s-10.2-82.53-8.53-121.84c1.6-37.59,7.25-71.96,16.8-102.17,9.23-29.21,21.56-52.82,36.63-70.18,14.32-16.49,30.49-26.43,48.05-29.53M889.04,312.42c-91.87,16.22-141.15,172.1-110.07,348.19,31.08,176.09,130.75,305.69,222.62,289.47,91.87-16.22,141.15-172.1,110.07-348.19-31.08-176.08-130.75-305.69-222.62-289.47Z"/>
    <path class="cls-3" d="M864.77,798.91c7.9,33.48,19.94,73.78,23.18,86.61.53,2.11-6.65,10.75-6.65,10.75l-187.14,33.03s-23.1-91.02-29.51-121.65c-11.12-53.11-28.98-152.96-39.31-218.8-.61-3.94-1.21-7.75-1.77-11.43-.86-5.62-1.65-10.91-2.36-15.83-4.46-30.97-13.92-124.41-13.92-124.41l187.14-33.02s9.46,93.43,13.92,124.41c4.03,27.93,10.66,68.35,17.91,109.91,8.8,50.47,18.51,102.63,25.52,136.15.48,2.28,1.04,4.9,1.69,7.78.28,1.26,8.06,2.57,8.36,3.92.88,3.85,1.86,8.09,2.92,12.58Z"/>
    <path class="cls-2" d="M877.62,769.22c-12.6-60.19-34.37-183.54-43.14-244.41-3.48-24.18-10.21-88.59-12.77-113.39-.62-6.04-27.27-7.26-27.27-7.26,0,0,9.45,93.43,13.92,124.41,8.91,61.83,30.63,184.92,43.43,246.05,6.41,30.63,29.51,121.65,29.51,121.65,0,0,24.7-9.99,23.32-15.47-5.96-23.65-21.94-87.45-26.99-111.59Z"/>
    <path class="cls-5" d="M1067.91,479.57l16.66-13.65-9.75-24.04,5.99-7.43-.87-2.14c-2.19-5.4-8.6-7.68-13.71-4.87l-22.03,12.11-5.01,2.68,9.28,9.76,8.83,1.41,10.61,26.17Z"/>
    <path class="cls-2" d="M1065.17,491.24l24.85-13.66c3.87-2.12,5.53-6.81,3.88-10.9l-13.32-32.85-31.63,17.39,16.22,40.02Z"/>
    <path class="cls-2" d="M719.65,747.64l-33.36,5.89-1.91-10.83,33.36-5.89c5.74-1.01,9.59-6.51,8.57-12.25l-2.06-11.7-37.28,6.58-1.91-10.83,37.28-6.58-1.48-8.36c-1.01-5.74-6.51-9.58-12.24-8.57l-33.36,5.89-1.91-10.83,33.36-5.89c11.71-2.06,22.91,5.78,24.98,17.48l5.45,30.88c2.07,11.71-5.78,22.92-17.48,24.99Z"/>
    <path class="cls-2" d="M673.19,551.42l10.83-1.91,13.06,73.98-10.83,1.91-13.06-73.98Z"/>
    <path class="cls-1" d="M757.78,685.73l5.94,33.66c.88,4.98,5.64,8.31,10.61,7.43l20.31-3.58c2.87-.51,5.15-2.32,6.44-4.7-10.16-14.09-20.08-28.97-29.7-44.5l-6.18,1.09c-4.97.88-8.3,5.63-7.43,10.61Z"/>
    <path class="cls-2" d="M837.49,638.47c-7.25-41.56-13.88-81.97-17.91-109.91-4.46-30.97-13.92-124.41-13.92-124.41l-16.37-10.31-114.54,20.21-6.35,12.34c11.65,50.96,30.12,105.06,55.4,159.36,12.82,27.53,26.74,53.65,41.44,78.19l6.14,10.08c9.62,15.53,19.53,30.41,29.7,44.5,3.3,5.3,6.82,9.26,6.82,9.26,0,0,30.09,38.15,45.58,54.61-.65-2.89,10-5.5,9.53-7.78-7.01-33.53-16.72-85.69-25.52-136.16Z"/>
    <path class="cls-2" d="M794.65,723.24l-20.31,3.58c-4.98.88-9.74-2.45-10.61-7.43l-5.94-33.66c-.88-4.97,2.45-9.73,7.43-10.61l6.18-1.09c-.2-.32,6.89-2.01,6.69-2.32-1.61-2.6-3.21-5.23-4.8-7.87-.25-.42-7.78.53-8.03.12l-1.95.34c-10.94,1.93-18.28,12.4-16.35,23.35l5.94,33.66c1.93,10.94,12.41,18.28,23.35,16.34l20.31-3.58c4.54-.8,8.45-3.09,11.35-6.27-.4-.53,2.95-4.8,2.55-5.34-1.56-2.09-3.11-4.19-4.65-6.31-.33-.45-4.4,2.84-4.72,2.39-1.29,2.39-3.57,4.2-6.44,4.71Z"/>
    <path class="cls-5" d="M812.9,710.71l-5.94-33.66c-1.93-10.94-12.41-18.28-23.35-16.34l-18.36,3.24c2.03,3.39,4.08,6.75,6.14,10.08l14.14-2.5c4.98-.88,9.74,2.45,10.61,7.43l5.94,33.66c.37,2.11-.04,4.16-.99,5.91,2.26,3.13,4.54,6.2,6.82,9.26,4.07-4.47,6.12-10.69,4.99-17.08Z"/>
    <path class="cls-5" d="M794.36,605.66l-33.36,5.89c-11.71,2.06-22.91-5.78-24.98-17.49l-3.39-19.19,32.28-5.7c5.74-1.01,9.59-6.51,8.57-12.25l-.23-1.29c-1.01-5.74-6.51-9.58-12.25-8.57l-34.19,6.03-1.91-10.83,34.19-6.03c11.71-2.07,22.92,5.78,24.98,17.48l.23,1.29c2.07,11.71-5.78,22.92-17.49,24.98l-21.45,3.79,1.47,8.36c1.01,5.74,6.51,9.59,12.24,8.57l33.36-5.89,1.91,10.83Z"/>
    <path class="cls-2" d="M1060.43,479.57l-189.76,33.49-12.1-30.29c-2.01-5.04,1.11-10.65,6.46-11.6l172.93-30.52c3.77-.67,7.49,1.41,8.91,4.96l2.23,5.59,11.33,28.37Z"/>
    <path class="cls-3" d="M1060.02,492.15l-177.6,31.34c-4.08.72-8.11-1.52-9.65-5.37l-13.36-33.45,189.76-33.49,14.07,35.2c1,2.51-.56,5.3-3.21,5.77Z"/>
  </g>
</svg>